<svg width="1092" height="279" viewBox="0 0 1092 279" fill="none" xmlns="http://www.w3.org/2000/svg">
<path d="M278.103 101.784H203.602V176.286H278.103V101.784Z" fill="black" style="fill:black;fill-opacity:1;"/>
<path d="M176.316 -6.18528e-05L139.065 64.5205L203.586 101.771L240.837 37.2509L176.316 -6.18528e-05Z" fill="black" style="fill:black;fill-opacity:1;"/>
<path d="M74.5176 176.237L37.2666 240.757L101.787 278.008L139.038 213.488L74.5176 176.237Z" fill="black" style="fill:black;fill-opacity:1;"/>
<path d="M74.5264 101.784H0.0244141V176.286H74.5264V101.784Z" fill="black" style="fill:black;fill-opacity:1;"/>
<path d="M203.604 176.296L139.083 213.547L176.334 278.068L240.855 240.817L203.604 176.296Z" fill="black" style="fill:black;fill-opacity:1;"/>
<path d="M101.808 0.0319901L37.2871 37.283L74.5381 101.803L139.059 64.5525L101.808 0.0319901Z" fill="black" style="fill:black;fill-opacity:1;"/>
<path d="M462.142 257.16C426.842 257.16 398.868 245.837 378.22 222.858C356.906 200.213 346.25 170.573 346.25 133.275C346.25 96.6418 356.906 66.6695 378.22 43.3577C398.868 20.712 426.842 9.38918 462.142 9.38918C496.777 9.38918 524.751 20.712 546.065 43.3577C567.045 66.6695 577.702 96.6418 577.702 133.275C577.702 170.24 567.045 200.213 546.065 222.858C524.751 245.837 496.777 257.16 462.142 257.16ZM462.142 225.19C486.12 225.19 505.103 216.864 519.423 200.213C533.41 184.227 540.736 161.915 540.736 133.275C540.736 104.967 533.41 82.6547 519.423 66.0035C504.77 49.6852 485.787 41.3596 462.142 41.3596C438.165 41.3596 419.182 49.6852 404.862 66.0035C390.209 82.9878 383.215 105.3 383.215 133.275C383.215 161.582 390.209 183.894 404.862 200.213C418.849 216.864 438.165 225.19 462.142 225.19ZM784.774 75.9942C803.423 75.9942 817.743 81.6556 828.4 92.6455C838.724 103.635 844.052 118.288 844.052 136.605V251.832H810.416V140.934C810.416 117.289 799.427 105.3 777.447 105.3C765.458 105.3 755.8 109.963 748.474 118.954C740.814 127.946 737.151 140.934 737.151 157.585V251.832H703.848V140.934C703.848 117.289 692.526 105.3 670.546 105.3C658.557 105.3 648.899 109.963 641.573 118.954C633.913 128.279 630.25 140.934 630.25 157.585V251.832H596.947V79.9905H628.918V105.633C640.574 85.985 657.225 75.9942 678.539 75.9942C704.514 75.9942 722.165 86.9841 731.49 108.298C743.478 86.9841 761.462 75.9942 784.774 75.9942ZM957.119 75.9942C975.769 75.9942 990.755 81.3226 1001.41 91.9794C1012.07 102.636 1017.4 117.289 1017.4 136.605V251.832H984.094V141.267C984.094 117.289 971.772 105.3 947.795 105.3C936.472 105.3 926.481 109.63 917.822 117.955C908.831 126.614 904.501 138.936 904.501 154.921V251.832H871.199V79.9905H903.169V105.633C916.157 85.985 934.141 75.9942 957.119 75.9942ZM1078.59 55.6797H1044.62V20.046H1078.59V55.6797ZM1078.26 251.832H1044.96V79.9905H1078.26V251.832Z" fill="black" style="fill:black;fill-opacity:1;"/>
</svg>
